<svg width="92" height="95" viewBox="0 0 92 95" fill="none" xmlns="http://www.w3.org/2000/svg">
<g clip-path="url(#clip0_5034_1198)">
<path d="M48.898 5.97273C43.2336 5.96204 37.623 7.10682 32.3883 9.34132C27.1536 11.5758 22.3979 14.8561 18.3942 18.9937C1.57548 36.3609 1.57548 64.6115 18.4 81.9787C35.2187 99.3399 62.5772 99.3399 79.396 81.9787C96.209 64.6115 96.209 36.3609 79.396 18.9937C75.3946 14.8562 70.641 11.5759 65.4081 9.34133C60.1753 7.10677 54.5664 5.96198 48.9037 5.97273H48.898ZM48.898 11.8746C58.4545 11.8746 68.011 15.6449 75.325 23.1915C78.8011 26.773 81.5589 31.0274 83.4406 35.711C85.3223 40.3946 86.2908 45.4155 86.2908 50.4862C86.2908 55.5568 85.3223 60.5777 83.4406 65.2613C81.5589 69.9449 78.8011 74.1993 75.325 77.7809C71.8565 81.3703 67.7365 84.2181 63.2008 86.1611C58.6651 88.1041 53.8028 89.1043 48.8922 89.1043C43.9817 89.1043 39.1194 88.1041 34.5837 86.1611C30.048 84.2181 25.9279 81.3703 22.4595 77.7809C18.9834 74.1993 16.2256 69.9449 14.3439 65.2613C12.4622 60.5777 11.4936 55.5568 11.4936 50.4862C11.4936 45.4155 12.4622 40.3946 14.3439 35.711C16.2256 31.0274 18.9834 26.773 22.4595 23.1915C25.9269 19.5994 30.0476 16.7503 34.5849 14.8082C39.1221 12.866 43.9864 11.8691 48.898 11.8746V11.8746ZM65.918 38.6052C65.3735 38.6581 64.8548 38.8703 64.423 39.2168L43.4125 55.4856L33.6777 45.4393C33.4125 45.1558 33.0953 44.9296 32.7445 44.774C32.3938 44.6184 32.0165 44.5365 31.6348 44.5331C31.253 44.5297 30.8744 44.6048 30.5211 44.754C30.1678 44.9033 29.8468 45.1238 29.5768 45.4025C29.3069 45.6812 29.0934 46.0127 28.9489 46.3776C28.8043 46.7424 28.7316 47.1333 28.7349 47.5275C28.7382 47.9217 28.8175 48.3113 28.9682 48.6735C29.1189 49.0357 29.3379 49.3633 29.6125 49.6371L41.1125 61.5121C41.6013 62.0171 42.2499 62.3232 42.9395 62.3745C43.6291 62.4257 44.3135 62.2186 44.8672 61.7912L67.8672 43.9787C68.3546 43.6119 68.7179 43.0961 68.9057 42.5043C69.0936 41.9126 69.0965 41.2748 68.914 40.6813C68.7315 40.0877 68.3729 39.5685 67.8889 39.197C67.4049 38.8255 66.82 38.6205 66.217 38.6112C66.1193 38.606 66.0214 38.606 65.9237 38.6112L65.918 38.6052Z" fill="#C1FD35"/>
</g>
<defs>
<clipPath id="clip0_5034_1198">
<rect width="92" height="95" fill="white"/>
</clipPath>
</defs>
</svg>
