<svg width="69" height="23" viewBox="0 0 69 23" fill="none" xmlns="http://www.w3.org/2000/svg">
<path fill-rule="evenodd" clip-rule="evenodd" d="M17.2511 21.8498H11.2794L6.80143 4.76602C6.58889 3.98016 6.1376 3.28542 5.47376 2.95798C3.81707 2.13511 1.99152 1.48023 0 1.14994V0.492216H9.61984C10.9475 0.492216 11.9433 1.48023 12.1092 2.62769L14.4327 14.9508L20.4014 0.492216H26.2071L17.2511 21.8498ZM29.5272 21.8498H23.8875L28.5314 0.492216H34.1711L29.5272 21.8498ZM41.468 6.40928C41.634 5.25897 42.6298 4.60124 43.7915 4.60124C45.617 4.4361 47.6056 4.76639 49.2652 5.58641L50.261 0.988014C48.6014 0.330287 46.7758 0 45.1191 0C39.6454 0 35.6624 2.95835 35.6624 7.06416C35.6624 10.1877 38.4837 11.8277 40.4752 12.8157C42.6298 13.8009 43.4596 14.4586 43.2936 15.4438C43.2936 16.9215 41.634 17.5793 39.9773 17.5793C37.9858 17.5793 35.9943 17.0867 34.1716 16.2638L33.1759 20.865C35.1674 21.6851 37.322 22.0154 39.3135 22.0154C45.4511 22.1776 49.2652 19.2221 49.2652 14.786C49.2652 9.19964 41.468 8.8722 41.468 6.40928V6.40928ZM69.0009 21.8498L64.5229 0.492216H59.7129C58.7172 0.492216 57.7214 1.14994 57.3895 2.13511L49.0973 21.8498H54.903L56.0618 18.7292H63.1952L63.859 21.8498H69.0009ZM60.5434 6.24403L62.2 14.2934H57.5561L60.5434 6.24403Z" fill="#939393"/>
</svg>
